<?xml version="1.0" encoding="utf-8" ?>
<!-- Generator: Assembly 1.0 - http://assemblyapp.co -->
<svg version="1.1" xmlns="http://www.w3.org/2000/svg" xmlns:xlink="http://www.w3.org/1999/xlink" width="300" height="300" viewBox="0 0 300 300">
	<rect x="0" y="0" width="300" height="300" fill="transparent" fill-opacity="0" />
	<g id="widget" transform="matrix(1,0,0,1,150,150)">
		<path d="M92.329055,-41.671461 L92.329055,81.022505 L30.982072,81.022505 C-2.9202063,81.022505 -30.364909,53.577803 -30.364909,19.675522 L-30.364909,19.675522 C-30.364909,-14.226751 -2.9202063,-41.671461 30.982072,-41.671461 L92.329055,-41.671461 Z" fill="#00dffe" fill-opacity="1" />
		<path d="M-87.766279,81.022505 L-87.766279,-41.671461 L-26.419296,-41.671461 C7.4829825,-41.671461 34.927686,-14.226758 34.927686,19.675522 L34.927686,19.675522 C34.927686,53.577796 7.4829825,81.022505 -26.419296,81.022505 L-87.766279,81.022505 Z" fill="#09476b" fill-opacity="1" />
		<path d="M-55.984383,35.50325 L-79.849722,35.50325 L-79.849722,-84.237289 L-55.984383,-84.237289 L-55.984383,35.50325 Z" fill="#09476b" fill-opacity="1" stroke-width="15.8331" stroke="#09476b" stroke-linecap="round" stroke-linejoin="round" />
	</g>
</svg>
